<svg id="visual" viewBox="0 0 900 600" width="900" height="600" xmlns="http://www.w3.org/2000/svg" xmlns:xlink="http://www.w3.org/1999/xlink" version="1.1"><rect x="0" y="0" width="900" height="600" fill="#fafafa"></rect><path d="M0 117L9.3 137.3C18.7 157.7 37.3 198.3 56.2 204.8C75 211.3 94 183.7 112.8 182.5C131.7 181.3 150.3 206.7 169 209.8C187.7 213 206.3 194 225 184C243.7 174 262.3 173 281.2 167C300 161 319 150 337.8 140.7C356.7 131.3 375.3 123.7 394 132.2C412.7 140.7 431.3 165.3 450 181.3C468.7 197.3 487.3 204.7 506.2 209.8C525 215 544 218 562.8 222.5C581.7 227 600.3 233 619 226.5C637.7 220 656.3 201 675 179C693.7 157 712.3 132 731.2 135.7C750 139.3 769 171.7 787.8 176.7C806.7 181.7 825.3 159.3 844 157C862.7 154.7 881.3 172.3 890.7 181.2L900 190L900 601L890.7 601C881.3 601 862.7 601 844 601C825.3 601 806.7 601 787.8 601C769 601 750 601 731.2 601C712.3 601 693.7 601 675 601C656.3 601 637.7 601 619 601C600.3 601 581.7 601 562.8 601C544 601 525 601 506.2 601C487.3 601 468.7 601 450 601C431.3 601 412.7 601 394 601C375.3 601 356.7 601 337.8 601C319 601 300 601 281.2 601C262.3 601 243.7 601 225 601C206.3 601 187.7 601 169 601C150.3 601 131.7 601 112.8 601C94 601 75 601 56.2 601C37.3 601 18.7 601 9.3 601L0 601Z" fill="#69d0fa"></path><path d="M0 287L9.3 282.7C18.7 278.3 37.3 269.7 56.2 255.3C75 241 94 221 112.8 219.7C131.7 218.3 150.3 235.7 169 233.2C187.7 230.7 206.3 208.3 225 203.8C243.7 199.3 262.3 212.7 281.2 211.2C300 209.7 319 193.3 337.8 201.8C356.7 210.3 375.3 243.7 394 260.3C412.7 277 431.3 277 450 269.7C468.7 262.3 487.3 247.7 506.2 237.5C525 227.3 544 221.7 562.8 231.8C581.7 242 600.3 268 619 272C637.7 276 656.3 258 675 254.3C693.7 250.7 712.3 261.3 731.2 259.7C750 258 769 244 787.8 238.7C806.7 233.3 825.3 236.7 844 239.5C862.7 242.3 881.3 244.7 890.7 245.8L900 247L900 601L890.7 601C881.3 601 862.7 601 844 601C825.3 601 806.7 601 787.8 601C769 601 750 601 731.2 601C712.3 601 693.7 601 675 601C656.3 601 637.7 601 619 601C600.3 601 581.7 601 562.8 601C544 601 525 601 506.2 601C487.3 601 468.7 601 450 601C431.3 601 412.7 601 394 601C375.3 601 356.7 601 337.8 601C319 601 300 601 281.2 601C262.3 601 243.7 601 225 601C206.3 601 187.7 601 169 601C150.3 601 131.7 601 112.8 601C94 601 75 601 56.2 601C37.3 601 18.7 601 9.3 601L0 601Z" fill="#27b5fb"></path><path d="M0 352L9.3 349.8C18.7 347.7 37.3 343.3 56.2 339.7C75 336 94 333 112.8 322.7C131.7 312.3 150.3 294.7 169 292.2C187.7 289.7 206.3 302.3 225 314C243.7 325.7 262.3 336.3 281.2 335C300 333.7 319 320.3 337.8 322.2C356.7 324 375.3 341 394 347.5C412.7 354 431.3 350 450 337.2C468.7 324.3 487.3 302.7 506.2 289C525 275.3 544 269.7 562.8 266.3C581.7 263 600.3 262 619 277.5C637.7 293 656.3 325 675 331C693.7 337 712.3 317 731.2 310.8C750 304.7 769 312.3 787.8 309.5C806.7 306.7 825.3 293.3 844 298C862.7 302.7 881.3 325.3 890.7 336.7L900 348L900 601L890.7 601C881.3 601 862.7 601 844 601C825.3 601 806.7 601 787.8 601C769 601 750 601 731.2 601C712.3 601 693.7 601 675 601C656.3 601 637.7 601 619 601C600.3 601 581.7 601 562.8 601C544 601 525 601 506.2 601C487.3 601 468.7 601 450 601C431.3 601 412.7 601 394 601C375.3 601 356.7 601 337.8 601C319 601 300 601 281.2 601C262.3 601 243.7 601 225 601C206.3 601 187.7 601 169 601C150.3 601 131.7 601 112.8 601C94 601 75 601 56.2 601C37.3 601 18.7 601 9.3 601L0 601Z" fill="#0098f9"></path><path d="M0 415L9.3 410.5C18.7 406 37.3 397 56.2 397.7C75 398.3 94 408.7 112.8 407.3C131.7 406 150.3 393 169 381.5C187.7 370 206.3 360 225 354C243.7 348 262.3 346 281.2 347.7C300 349.3 319 354.7 337.8 357.5C356.7 360.3 375.3 360.7 394 358.5C412.7 356.3 431.3 351.7 450 362.2C468.7 372.7 487.3 398.3 506.2 404.8C525 411.3 544 398.7 562.8 386.5C581.7 374.3 600.3 362.7 619 354.3C637.7 346 656.3 341 675 345.2C693.7 349.3 712.3 362.7 731.2 366.7C750 370.7 769 365.3 787.8 365.2C806.7 365 825.3 370 844 367.8C862.7 365.7 881.3 356.3 890.7 351.7L900 347L900 601L890.7 601C881.3 601 862.7 601 844 601C825.3 601 806.7 601 787.8 601C769 601 750 601 731.2 601C712.3 601 693.7 601 675 601C656.3 601 637.7 601 619 601C600.3 601 581.7 601 562.8 601C544 601 525 601 506.2 601C487.3 601 468.7 601 450 601C431.3 601 412.7 601 394 601C375.3 601 356.7 601 337.8 601C319 601 300 601 281.2 601C262.3 601 243.7 601 225 601C206.3 601 187.7 601 169 601C150.3 601 131.7 601 112.8 601C94 601 75 601 56.2 601C37.3 601 18.7 601 9.3 601L0 601Z" fill="#0077ef"></path><path d="M0 429L9.3 438.2C18.7 447.3 37.3 465.7 56.2 464C75 462.3 94 440.7 112.8 439.8C131.7 439 150.3 459 169 457.5C187.7 456 206.3 433 225 432.2C243.7 431.3 262.3 452.7 281.2 461.8C300 471 319 468 337.8 458.3C356.7 448.7 375.3 432.3 394 435.5C412.7 438.7 431.3 461.3 450 472.2C468.7 483 487.3 482 506.2 475.2C525 468.3 544 455.7 562.8 444C581.7 432.3 600.3 421.7 619 427.5C637.7 433.3 656.3 455.7 675 466.8C693.7 478 712.3 478 731.2 474.8C750 471.7 769 465.3 787.8 457.7C806.7 450 825.3 441 844 436.8C862.7 432.7 881.3 433.3 890.7 433.7L900 434L900 601L890.7 601C881.3 601 862.7 601 844 601C825.3 601 806.7 601 787.8 601C769 601 750 601 731.2 601C712.3 601 693.7 601 675 601C656.3 601 637.7 601 619 601C600.3 601 581.7 601 562.8 601C544 601 525 601 506.2 601C487.3 601 468.7 601 450 601C431.3 601 412.7 601 394 601C375.3 601 356.7 601 337.8 601C319 601 300 601 281.2 601C262.3 601 243.7 601 225 601C206.3 601 187.7 601 169 601C150.3 601 131.7 601 112.8 601C94 601 75 601 56.2 601C37.3 601 18.7 601 9.3 601L0 601Z" fill="#0053df"></path><path d="M0 492L9.3 497.8C18.7 503.7 37.3 515.3 56.2 520.8C75 526.3 94 525.7 112.8 526.3C131.7 527 150.3 529 169 523.7C187.7 518.3 206.3 505.7 225 502.2C243.7 498.7 262.3 504.3 281.2 510.3C300 516.3 319 522.7 337.8 523.2C356.7 523.7 375.3 518.3 394 514.3C412.7 510.3 431.3 507.7 450 511.7C468.7 515.7 487.3 526.3 506.2 525.5C525 524.7 544 512.3 562.8 505.7C581.7 499 600.3 498 619 502.3C637.7 506.7 656.3 516.3 675 523.7C693.7 531 712.3 536 731.2 531.2C750 526.3 769 511.7 787.8 506.8C806.7 502 825.3 507 844 506C862.7 505 881.3 498 890.7 494.5L900 491L900 601L890.7 601C881.3 601 862.7 601 844 601C825.3 601 806.7 601 787.8 601C769 601 750 601 731.2 601C712.3 601 693.7 601 675 601C656.3 601 637.7 601 619 601C600.3 601 581.7 601 562.8 601C544 601 525 601 506.2 601C487.3 601 468.7 601 450 601C431.3 601 412.7 601 394 601C375.3 601 356.7 601 337.8 601C319 601 300 601 281.2 601C262.3 601 243.7 601 225 601C206.3 601 187.7 601 169 601C150.3 601 131.7 601 112.8 601C94 601 75 601 56.2 601C37.3 601 18.7 601 9.3 601L0 601Z" fill="#3524c7"></path></svg>